<svg fill="#1C3648" id="Capa_1" enable-background="new 0 0 512.028 512.028" height="512" viewBox="0 0 512.028 512.028" width="512" xmlns="http://www.w3.org/2000/svg"><path d="m493.418 18.595c-12.156-12.156-29.443-18.582-49.992-18.582-18.874 0-40.087 5.367-61.938 15.185-.571.218-1.134.465-1.68.755-29.47 13.529-60.024 35.111-87.531 62.618l-41.038 41.039c-39.863-14.447-82.757-17.875-124.696-9.862-46.39 8.862-88.628 31.264-122.149 64.784-2.813 2.813-4.394 6.629-4.394 10.607s1.581 7.793 4.394 10.606l95.961 95.961 1.39 1.39-37.371 37.375c-5.857 5.858-5.857 15.354 0 21.212l95.957 95.963c2.813 2.813 6.628 4.394 10.607 4.394s7.794-1.581 10.607-4.394l37.374-37.375 1.389 1.389c.003.003.007.006.01.009l95.952 95.952c2.929 2.929 6.768 4.394 10.607 4.394s7.678-1.464 10.606-4.394c64.978-64.977 86.07-160.986 54.928-246.852l41.033-41.033c33.655-33.655 58.826-72.099 70.876-108.249 13.216-39.655 9.345-72.645-10.902-92.892zm-21.213 21.213c11.089 11.089 12.802 32.239 4.857 58.392l-63.28-63.279c10.541-3.206 20.541-4.908 29.645-4.908 12.596 0 22.279 3.296 28.778 9.795zm-244.764 103.599-116.48 116.479-74.366-74.366c52.65-45.558 124.286-61.197 190.846-42.113zm-56.503 272.419-74.745-74.749 26.764-26.767 60.4 60.399 14.349 14.349zm155.554 59.592-74.366-74.365 116.478-116.479c19.06 66.549 3.386 138.247-42.112 190.844zm85.737-276.895-181.315 181.317-38.763-38.763 133.379-133.38c5.858-5.858 5.858-15.355 0-21.213s-15.355-5.858-21.213 0l-133.379 133.379-38.764-38.763 133.219-133.219c.085-.082.168-.165.25-.25l47.847-47.846c22.177-22.177 46.712-40.236 70.303-52.427l80.893 80.893c-12.246 23.84-30.266 48.081-52.457 70.272z"/><path d="m410.789 127.89-26.666-26.666c-5.857-5.858-15.355-5.858-21.213 0s-5.858 15.355 0 21.213l26.666 26.666c2.929 2.929 6.767 4.393 10.606 4.393s7.678-1.464 10.607-4.393c5.858-5.858 5.858-15.355 0-21.213z"/></svg>