<svg fill="#1C3648" id="Capa_1" enable-background="new 0 0 512 512" height="512" viewBox="0 0 512 512" width="512" xmlns="http://www.w3.org/2000/svg"><path d="m462.325 373.527c12.124-11.814 19.675-28.301 19.675-46.527 0-35.841-29.159-65-65-65s-65 29.159-65 65c0 18.226 7.551 34.713 19.675 46.527-10.588 5.772-19.96 13.502-27.632 22.698l-73.043-58.434v-87.791h65c8.284 0 15-6.716 15-15v-40c0-35.981-20.107-67.353-49.675-83.473 12.124-11.814 19.675-28.301 19.675-46.527 0-35.841-29.159-65-65-65s-65 29.159-65 65c0 18.226 7.551 34.713 19.675 46.527-29.568 16.12-49.675 47.492-49.675 83.473v40c0 8.284 6.716 15 15 15h65v87.791l-73.043 58.434c-7.673-9.195-17.044-16.925-27.632-22.698 12.124-11.814 19.675-28.301 19.675-46.527 0-35.841-29.159-65-65-65s-65 29.159-65 65c0 18.226 7.551 34.713 19.675 46.527-29.568 16.12-49.675 47.492-49.675 83.473v40c0 8.284 6.716 15 15 15h160c8.284 0 15-6.716 15-15v-40c0-12.252-2.332-23.969-6.574-34.732l72.574-58.06 72.574 58.06c-4.242 10.763-6.574 22.48-6.574 34.732v40c0 8.284 6.716 15 15 15h160c8.284 0 15-6.716 15-15v-40c0-35.981-20.107-67.353-49.675-83.473zm-241.325-308.527c0-19.299 15.701-35 35-35s35 15.701 35 35-15.701 35-35 35-35-15.701-35-35zm-30 130c0-35.841 29.159-65 65-65s65 29.159 65 65v25h-130zm-131 132c0-19.299 15.701-35 35-35s35 15.701 35 35-15.701 35-35 35-35-15.701-35-35zm100 155h-130v-25c0-35.841 29.159-65 65-65s65 29.159 65 65zm222-155c0-19.299 15.701-35 35-35s35 15.701 35 35-15.701 35-35 35-35-15.701-35-35zm100 155h-130v-25c0-35.841 29.159-65 65-65s65 29.159 65 65z"/></svg>